# xmcd
#
# Track frame offsets: 
#        150
#        21651
#        37512
#        53236
#        73247
#        114011
#        142124
#        184801
#        192730
#        216037
#        236655
#        261222
#        285230
#        315397
#
# Disc length: 4543 seconds
#
# Revision: 2
# Processed by: cddbd v1.5.2PL0 Copyright (c) Steve Scherf et al.
# Submitted via: ExactAudioCopy v0.99pb4
#
DISCID=cd11bd0e
DTITLE=Various Artist - Battle of Guitars [disc 4]
DYEAR=2005
DGENRE=Jazz
TTITLE0=Laurindo Almeida - Toccata
TTITLE1=Paulinho Nogueira - Aria Na 4 a Corda
TTITLE2=Baden Powell - Samba Triste
TTITLE3=Jack Wilkins - O Grande Amor
TTITLE4=Larry Coryell - Vera Cruz
TTITLE5=Jack Wilkins - Dailey Double
TTITLE6=Jim Hall - Skylark
TTITLE7=Jack Wilkins - My Foolish Heart
TTITLE8=Jack Wilkins - You Must Believe in Spring
TTITLE9=Larry Coryell - Misty
TTITLE10=Kevin Eubanks - Model A
TTITLE11=Larry Coryell - St. Louis Blues
TTITLE12=Jack Wilkins - Streets of Rio
TTITLE13=Larry Coryell - Better Get Hit in Your Soul
EXTD=4CD: Documents/Membran 222616-354 (2005-02-21), EAN 4011222226167
EXTD=, ISBN 3-86562-191-0.
EXTT0=
EXTT1=
EXTT2=
EXTT3=
EXTT4=
EXTT5=
EXTT6=
EXTT7=
EXTT8=
EXTT9=
EXTT10=
EXTT11=
EXTT12=
EXTT13=
PLAYORDER=
